<svg height="512" viewBox="0 0 448 512" width="448" xmlns="http://www.w3.org/2000/svg"><path d="m48 32c-26.5 0-48 21.5-48 48v352c0 26.5 21.5 48 48 48h352c26.5 0 48-21.5 48-48v-352c0-26.5-21.5-48-48-48zm98.88086 133.23438c19.63465 0 37.0809 6.78825 49.92773 16.9707 11.87995 9.45182 17.44403 18.90726 22.29883 27.39258l-33.92383 16.94922c-2.42667-5.56536-5.34696-11.38712-12.8457-17.68165-8.24799-6.55193-16.47824-8.48437-23.52344-8.48437-27.62667 0-42.16992 25.69356-42.16992 54.28711 0 37.57324 19.1607 56.2207 42.16992 56.2207 22.29864 0 31.27737-15.5105 37.08008-25.43555l33.70508 17.20704c-6.31456 9.92543-12.37324 19.63513-25.94922 29.06836-7.26249 5.09068-23.97751 15.0371-47.73633 15.0371-45.32795 0-81.91406-32.95603-81.91406-90.89453 0-50.63589 34.415334-90.63671 82.88086-90.63671zm75.48242 5.32812h45.56445l35.38282 121.67773 35.125-121.67773h45.56445l-59.37891 171.11133h-43.61132z"/></svg>